<svg xmlns="http://www.w3.org/2000/svg" viewBox="0 0 512 512">
  <defs>
    <linearGradient id="maskBg" x1="0%" y1="0%" x2="100%" y2="100%">
      <stop offset="0%" stop-color="#2556ba" />
      <stop offset="100%" stop-color="#5d86f3" />
    </linearGradient>
  </defs>
  <rect width="512" height="512" rx="148" fill="url(#maskBg)" />
  <circle cx="256" cy="256" r="168" fill="rgba(255,255,255,0.14)" />
  <path d="M172 144h128c37.6 0 68 30.4 68 68v138c0 11-9 20-20 20h-16v30c0 17.7-14.3 32-32 32s-32-14.3-32-32v-30h-72v30c0 17.7-14.3 32-32 32s-32-14.3-32-32v-30h-16c-11 0-20-9-20-20V212c0-37.6 30.4-68 68-68Z" fill="#fff"/>
  <path d="M206 214h92v40h-92zm0 66h92v40h-92z" fill="#2f6fed"/>
  <path d="M356 198h40l-30 82h40l-72 106 22-72h-40z" fill="#ffd86b"/>
</svg>
