<svg xmlns="http://www.w3.org/2000/svg">
  <symbol id="icon-placeholder" viewBox="0 0 24 24"><path d="M0 0h24v24H0z" fill="none"/></symbol>
  <symbol id="icon-settings" viewBox="0 0 24 24"><path d="m19.14 12.94.04-.94-.04-.94 2.03-1.58a.5.5 0 0 0 .12-.64l-1.92-3.32a.5.5 0 0 0-.6-.22l-2.39.96a7.1 7.1 0 0 0-1.63-.94L14.4 2.8a.5.5 0 0 0-.49-.4h-3.82a.5.5 0 0 0-.49.4l-.36 2.52c-.58.23-1.12.54-1.63.94l-2.39-.96a.5.5 0 0 0-.6.22L2.7 8.84a.5.5 0 0 0 .12.64l2.03 1.58-.04.94.04.94L2.82 14.52a.5.5 0 0 0-.12.64l1.92 3.32c.13.22.39.31.6.22l2.39-.96c.5.4 1.05.72 1.63.94l.36 2.52c.04.24.25.4.49.4h3.82c.24 0 .45-.17.49-.4l.36-2.52c.58-.23 1.12-.54 1.63-.94l2.39.96c.22.09.47 0 .6-.22l1.92-3.32a.5.5 0 0 0-.12-.64l-2.03-1.58ZM12 15.5A3.5 3.5 0 1 1 12 8.5a3.5 3.5 0 0 1 0 7Z"/></symbol>
  <symbol id="icon-download" viewBox="0 0 24 24"><path d="M5 20h14v-2H5v2Zm7-18v10.17l3.59-3.58L17 10l-5 5-5-5 1.41-1.41L11 12.17V2h1Z"/></symbol>
  <symbol id="icon-upload" viewBox="0 0 24 24"><path d="M5 20h14v-2H5v2Zm7-14.17 3.59 3.58L17 8l-5-5-5 5 1.41 1.41L11 5.83V16h1V5.83Z"/></symbol>
  <symbol id="icon-chart" viewBox="0 0 24 24"><path d="M5 19V9h3v10H5Zm5 0V5h3v14h-3Zm5 0v-7h3v7h-3Z"/></symbol>
  <symbol id="icon-bolt" viewBox="0 0 24 24"><path d="M11 21h-1l1-7H7.5a.5.5 0 0 1-.41-.78L13 3h1l-1 7h3.5c.4 0 .64.45.41.78L11 21Z"/></symbol>
  <symbol id="icon-car" viewBox="0 0 24 24"><path d="M5 11l1.5-4.5A2 2 0 0 1 8.39 5h7.22a2 2 0 0 1 1.89 1.5L19 11a2 2 0 0 1 2 2v4h-2v2h-2v-2H7v2H5v-2H3v-4a2 2 0 0 1 2-2Zm3.39-4a.5.5 0 0 0-.47.34L6.74 11h10.52L16.08 7.34a.5.5 0 0 0-.47-.34H8.39ZM7 14.5A1.5 1.5 0 1 0 7 17a1.5 1.5 0 0 0 0-2.5Zm10 0A1.5 1.5 0 1 0 17 17a1.5 1.5 0 0 0 0-2.5Z"/></symbol>
  <symbol id="icon-euro" viewBox="0 0 24 24"><path d="M15.5 18.5A5.5 5.5 0 0 1 10.21 15H7v-2h2.56a5.7 5.7 0 0 1-.06-1c0-.34.02-.67.06-1H7V9h3.21a5.5 5.5 0 0 1 5.29-3.5c1.56 0 3 .65 4.02 1.7l-1.42 1.42A3.47 3.47 0 0 0 15.5 7.5c-1.5 0-2.79.94-3.3 2.5H17v2h-5.2a3.67 3.67 0 0 0 0 1H17v2h-4.8c.51 1.56 1.8 2.5 3.3 2.5 1.02 0 1.94-.42 2.6-1.12l1.42 1.42A5.45 5.45 0 0 1 15.5 18.5Z"/></symbol>
  <symbol id="icon-edit" viewBox="0 0 24 24"><path d="M3 17.25V21h3.75L17.81 9.94l-3.75-3.75L3 17.25Zm17.71-10.04a1.004 1.004 0 0 0 0-1.42l-2.5-2.5a1.004 1.004 0 0 0-1.42 0L14.85 5.23l3.75 3.75 2.11-2.11Z"/></symbol>
  <symbol id="icon-charging" viewBox="0 0 24 24"><path d="M7 2h8a2 2 0 0 1 2 2v9h1.5a1.5 1.5 0 0 1 1.34.83l1.95 3.89-1.78.9L18.38 15H17v5a2 2 0 0 1-2 2h-1v-4h-6v4H7a2 2 0 0 1-2-2V4a2 2 0 0 1 2-2Zm1 2v6h6V4H8Zm0 8v4h6v-4H8Z"/></symbol>
  <symbol id="icon-list" viewBox="0 0 24 24"><path d="M4 10.5A1.5 1.5 0 1 0 4 7.5a1.5 1.5 0 0 0 0 3Zm0 6A1.5 1.5 0 1 0 4 13.5a1.5 1.5 0 0 0 0 3ZM7 15h13v-2H7v2Zm0-6h13V7H7v2Zm0 12h13v-2H7v2ZM4 22.5A1.5 1.5 0 1 0 4 19.5a1.5 1.5 0 0 0 0 3Z"/></symbol>
  <symbol id="icon-receipt" viewBox="0 0 24 24"><path d="M19 21 16.5 19 14 21l-2.5-2L9 21l-2.5-2L4 21V3h15a1 1 0 0 1 1 1v17l-1-.01ZM8 8v2h8V8H8Zm0 4v2h8v-2H8Z"/></symbol>
  <symbol id="icon-close" viewBox="0 0 24 24"><path d="m18.3 5.71-1.41-1.41L12 9.17 7.11 4.29 5.7 5.71 10.59 10.6 5.7 15.49l1.41 1.41L12 12.01l4.89 4.89 1.41-1.41-4.89-4.89 4.89-4.89Z"/></symbol>
  <symbol id="icon-csv" viewBox="0 0 24 24"><path d="M6 2h9l5 5v15a2 2 0 0 1-2 2H6a2 2 0 0 1-2-2V4a2 2 0 0 1 2-2Zm8 1.5V8h4.5L14 3.5ZM7.2 18.8c.73 0 1.29-.26 1.76-.72l-.74-.74c-.25.24-.54.39-.95.39-.77 0-1.29-.62-1.29-1.53s.52-1.53 1.29-1.53c.41 0 .7.15.95.39l.74-.74c-.47-.47-1.03-.72-1.76-.72-1.42 0-2.5 1.04-2.5 2.6s1.08 2.6 2.5 2.6Zm4.15-.1 1.12-3.56 1.11 3.56h1.19l1.57-5.01h-1.19l-.98 3.45-1.07-3.45h-1.15l-1.07 3.45-.98-3.45H8.8l1.56 5.01h.99Zm6.56.1c1.12 0 1.86-.6 1.86-1.55 0-.76-.44-1.19-1.4-1.4l-.56-.12c-.5-.11-.7-.22-.7-.49 0-.3.28-.49.74-.49.47 0 .92.19 1.31.52l.61-.79c-.45-.41-1.07-.66-1.89-.66-1.03 0-1.76.61-1.76 1.51 0 .78.5 1.22 1.42 1.41l.58.13c.44.09.65.22.65.48 0 .32-.31.51-.83.51-.59 0-1.12-.23-1.54-.61l-.64.77c.53.49 1.27.78 2.15.78Z"/></symbol>
  <symbol id="icon-delete" viewBox="0 0 24 24"><path d="M7 21a2 2 0 0 1-2-2V7h14v12a2 2 0 0 1-2 2H7Zm3-11v8h2v-8h-2Zm4 0v8h2v-8h-2ZM6 4h3l1-1h4l1 1h3v2H6V4Z"/></symbol>
  <symbol id="icon-save" viewBox="0 0 24 24"><path d="M17 3H5a2 2 0 0 0-2 2v14a2 2 0 0 0 2 2h14a2 2 0 0 0 2-2V7l-4-4ZM12 19a3 3 0 1 1 0-6 3 3 0 0 1 0 6Zm3-10H5V5h10v4Z"/></symbol>
</svg>
